<svg height="474pt" viewBox="0 -75 474 474" width="474pt" xmlns="http://www.w3.org/2000/svg"><path d="m467 49.699219v25.949219c0 20.453124-13.980469 37.980468-33.058594 42.421874h-1.941406v-54.859374h-83v56.210937h-263v-112.421875h339.449219c23.699219 0 41.550781 18.910156 41.550781 42.699219zm0 0" fill="#e48e66"/><path d="m389 142.628906v117.320313h-263v-56.210938h-83v54.882813h-2.351562c-19.632813-4.710938-33.519532-22.210938-33.648438-42.402344v-25.949219c0-23.789062 20.929688-42.738281 44.628906-42.738281h297.371094v36.25zm0 0" fill="#e48e66"/><path d="m368 210.738281h-216c-3.867188 0-7-3.132812-7-7 0-3.863281 3.132812-7 7-7h216c3.867188 0 7 3.136719 7 7 0 3.867188-3.132812 7-7 7zm0 0" fill="#f8ec7d"/><path d="m43 265.621094h-2.351562c-.53125 0-1.0625-.0625-1.585938-.183594-22.792969-5.464844-38.914062-25.777344-39.0625-49.21875v-25.949219c0-26.960937 23.644531-49.738281 51.628906-49.738281h297.371094c3.867188 0 7 3.132812 7 7 0 3.863281-3.132812 7-7 7h-297.371094c-20.398437 0-37.628906 16.367188-37.628906 35.738281v25.949219c.105469 16.660156 11.378906 31.171875 27.492188 35.402344h1.507812c3.867188 0 7 3.132812 7 7 0 3.863281-3.132812 7-7 7zm0 0" fill="#6fe3ff"/><path d="m422 266.949219h-296c-3.867188 0-7-3.132813-7-7 0-3.863281 3.132812-7 7-7h296c3.867188 0 7 3.136719 7 7 0 3.867187-3.132812 7-7 7zm0 0" fill="#6fe3ff"/><path d="m324 70.210938h-216c-3.867188 0-7-3.136719-7-7 0-3.867188 3.132812-7 7-7h216c3.867188 0 7 3.132812 7 7 0 3.863281-3.132812 7-7 7zm0 0" fill="#f8ec7d"/><path d="m433.941406 125.070312h-1.941406c-3.867188 0-7-3.132812-7-7 0-3.867187 3.132812-7 7-7h1.101562c15.632813-4.011718 26.898438-18.78125 26.898438-35.421874v-25.949219c0-20.351563-14.851562-35.699219-34.550781-35.699219h-371.449219c-3.867188 0-7-3.132812-7-7s3.132812-7 7-7h371.449219c27.226562 0 48.550781 21.832031 48.550781 49.699219v25.949219c0 23.34375-16.179688 44.050781-38.472656 49.238281-.519532.121093-1.054688.183593-1.585938.183593zm0 0" fill="#6fe3ff"/><path d="m349 126.421875h-295c-3.867188 0-7-3.136719-7-7 0-3.867187 3.132812-7 7-7h295c3.867188 0 7 3.132813 7 7 0 3.863281-3.132812 7-7 7zm0 0" fill="#6fe3ff"/><g fill="#f8ec7d"><path d="m432 118.070312v65.710938l-40.960938-43.25-2.039062 2.097656-40 41.152344v-120.570312h83zm0 0"/><path d="m126 259.949219v64.410156l-42.039062-43.257813-40.960938 43.257813v-120.621094h83zm0 0"/></g></svg>