<svg xmlns="http://www.w3.org/2000/svg" viewBox="0 0 914.04 277.4"><defs><style>.a{fill:#085caa}</style></defs><circle class="a" cx="164.79" cy="112.64" r="112.64"/><path class="a" d="M56.9 157.54A24 24 0 1 0 44 188.89a24 24 0 0 0 12.9-31.35zM24 136.91A24 24 0 1 0 0 113a24 24 0 0 0 24 23.94zm58.32 58.48a24 24 0 1 0 0 33.92 24 24 0 0 0 0-33.92zm37.89 25.29A24 24 0 1 0 101.9 265a23.51 23.51 0 0 0 9.16 1.83 24 24 0 0 0 9.16-46.13zm44.7 8.76a24 24 0 1 0 24 24 24 24 0 0 0-24-24z"/><circle class="a" cx="483.1" cy="112.64" r="112.64"/><path class="a" d="M375.21 157.54a24 24 0 1 0-12.91 31.35 24 24 0 0 0 12.91-31.35zm-32.88-20.63a24 24 0 1 0-24-23.94 24 24 0 0 0 24 23.94zm58.3 58.48a24 24 0 1 0 0 33.92 24 24 0 0 0 0-33.92zm37.89 25.29A24 24 0 1 0 420.2 265a23.51 23.51 0 0 0 9.16 1.83 24 24 0 0 0 9.16-46.13zm44.69 8.76a24 24 0 1 0 24 24 24 24 0 0 0-24-24z"/><circle class="a" cx="801.4" cy="112.64" r="112.64"/><path class="a" d="M693.51 157.54a24 24 0 1 0-12.91 31.35 24 24 0 0 0 12.91-31.35zm-32.88-20.63a24 24 0 1 0-24-23.94 24 24 0 0 0 24 23.94zm58.3 58.48a24 24 0 1 0 0 33.92 24 24 0 0 0 0-33.92zm37.89 25.29A24 24 0 1 0 738.51 265a23.51 23.51 0 0 0 9.16 1.83 24 24 0 0 0 9.16-46.13zm44.7 8.76a24 24 0 1 0 24 24 24 24 0 0 0-24-24z"/><path d="M125.24 165.83V61.24h59.94a22.38 22.38 0 0 1 14 4.43q5.93 4.32 5.93 10.5V98.6q0 6.3-5.93 10.62a5.92 5.92 0 0 1-.94.58l.94.7q5.93 4.32 5.93 10.5v29.88q0 6.3-5.93 10.62a22.8 22.8 0 0 1-14 4.32zm59.94-67.91V84.34a8.15 8.15 0 0 0-8.18-8.16h-31.78v29.88H177a8.15 8.15 0 0 0 8.18-8.15zm0 44.82v-13.58A8.15 8.15 0 0 0 177 121h-31.78v29.88H177a8.15 8.15 0 0 0 8.18-8.15zm278.76 23.09a21.9 21.9 0 0 1-13.78-4.32q-5.6-4.32-5.6-10.62v-10.58l19.39-4.36v14.94h38.77V121h-38.78a21.89 21.89 0 0 1-13.78-4.32q-5.6-4.32-5.6-10.62V76.18q0-6.19 5.6-10.5a21.51 21.51 0 0 1 13.78-4.43h38.77a21.28 21.28 0 0 1 13.63 4.43q5.75 4.32 5.75 10.5v10.58l-19.39 4.36V76.18h-38.76v29.88h38.77a21.29 21.29 0 0 1 13.63 4.43q5.75 4.32 5.75 10.5v29.88q0 6.3-5.75 10.62a21.67 21.67 0 0 1-13.63 4.32zm319.31 0a21.9 21.9 0 0 1-13.78-4.32q-5.6-4.32-5.6-10.62v-10.58l19.39-4.36v14.94H822V121h-38.75a21.89 21.89 0 0 1-13.78-4.32q-5.6-4.32-5.6-10.62V76.18q0-6.19 5.6-10.5a21.51 21.51 0 0 1 13.78-4.43H822a21.28 21.28 0 0 1 13.63 4.43q5.75 4.32 5.75 10.5v10.58L822 91.12V76.18h-38.75v29.88H822a21.29 21.29 0 0 1 13.63 4.43q5.75 4.32 5.75 10.5v29.88q0 6.3-5.75 10.62a21.67 21.67 0 0 1-13.63 4.34z" fill="#fff"/></svg>