<svg xmlns="http://www.w3.org/2000/svg" viewBox="0 0 929.33 690.33"><defs><style>.c{fill:#231f20}</style><clipPath id="a"><path transform="rotate(-1.1 442.5 353.77)" fill="none" d="M-83.67-18.15H968.69v744.1H-83.67z"/></clipPath></defs><g clip-path="url(#a)"><path class="c" d="M869.36 71.5C818.44 66.86 784.53 90.65 736.7 98c10-22.51 31.78-33.4 28.63-68.91C698 53.64 650.1 111.87 591.2 150.33c2.81-35.77 4.29-72.88 9.61-106.14-64.31 48.75-113.3 136.1-147.35 214.75 29.27-37 60.51-81 96.18-106.09 2.64 29.34-7 60.33 8.19 80.17 23-18 48.81-28.09 72.37-45.82 30.14-22.71 54.49-51.94 102.18-53.23-6.53 31.69-8.13 56-13.14 96 40.73-35.79 75.67-82 112.55-120.08 12.85-13.29 29.09-22.69 37.55-38.33m60 349.21c-6.73 7.87-12.09 17.11-19.51 24.3-8-1.92-17.24-2.54-25.06-4.64.46-8.49 10.48-7.54 13-13.93-63.92 4.72-112.18 10-172.92 10.16 10.67-17.4 26-30.24 37.38-46.86-68.64 1.2-119.36 23.2-185.8 30.85 3.61-29.95 28.48-38.89 40.44-60.6-73.8 1.4-124.15 25.95-161.92 62.95 29.95-4.25 55.3-10.1 81.37-10.11-4.87 18.65-13.87 33.21-19 51.65 10.83 6.86 26.25 1.75 38.28-.74 36.93-7.67 76.19-15.79 116.05-24.46-3.69 20.92-25.67 23.8-39.27 34.94-.28-5.31 1.87-8.2 3.09-12-11.54 1.43-23.12 2.84-33.18 5.76-17.42 33.6-26.42 75.57-58.1 95.11-3.55-9-10.53-14.34-13.78-23.66 22.84-13.19 30.78-41.1 43.73-64.06-18.44.89-41.08 11.84-59.59 18.22a53.44 53.44 0 0 1-23.66-18.34c4-15.6 10.67-28.59 15.81-43-16.17 3.85-24.52 5.07-41.46 7.63-7.09-10.47-23.12-11.36-41.8-9.45 1.55-15 15.49-25.66 26-33 15.29-10.66 37.17-14.27 49.4-28.3 32.71-9 56.72-26.66 96-29.19 9.39-19.51 10.15-44.52 7-68.5-8.23 13.66-15.92 27.84-29.26 36.44 2.29-10.75-3.5-28.84.88-41-19.93 12.71-27.33 37.82-47.31 50.47 2-10.92-2.88-28.9-2.45-41-11.91 8.88-23.43 32.69-39.11 43.47 1.64-16.82 3.74-33.2 5.7-49.68-25.27 23.06-46.92 49.72-66.75 78.2 10.62 40.48-10.2 55.87-21.72 82.44-32.4 1.43-39.72-23.89-59-36.46.94-31.59-4.78-54.93 8.58-73.65.88 27.35.61 60.65 9.93 83.55 7.84 3.83 18.44 4.72 28.41 6.29C413.16 390 409 350 406.22 312.83c-17.55-28.69-62.92-16.08-101.8-13.42-7.53 40.8-18.8 92.67-5.44 150.51 9.58-.06 19.23 0 26.59-2.22-8.26 14.74-16.82 29.19-29.19 39.87-17.66-30.08-19.3-68.93-33.55-100.19 2.94-57.27 1.39-118.42 20-173 5.08-14.9 13.78-31 20.74-46.53 15.3-34.22 27.74-52.14 50.09-79.59s36.85-46.09 68.71-62.84C469.25 13.24 529.67 18.94 561 53.5 551.15 23 519.86 10.9 477 9c-39.25-1.8-47.23 2.71-71.23 18.45C346 66.55 298.62 142.2 269.34 206.07c-2.85-5.11 2.92-16.06 4.57-22.29-34.77 28.12-71.1 52.1-113.35 79.08-12.41 7.91-24.16 20.54-37.78 26.36-19.16 8.14-42.59 6.82-63 14.89-11.18 4.42-17.61 15.77-29.56 21.07-10.42 31-2.87 58.67 11.54 80.11 14.52-1.3 23.78-7.78 36.4-11 14.53 9.47 30.78 17.14 45.45 26.47 5.92-3.16 10.23-7.16 16.42-12.28 3.13-2.59 11.88-14 14.71-13.95 11.88 0 27.64 39.35 40.76 41.94 9.86-12 15.46-28.29 24.17-41.47 15.3 25.8 28.79 82.36 43.74 110.24 1 1.79 11.86 13.45 11.94 15.15.42 8.42-18.13 19.58-19.48 26-39-21.29-71.5-52.64-111.31-74.76S60.85 436.43 17 416c-17.26-25.34-25.13-79.78-5.38-107.56 8-5.44 18.07-8.95 24.66-15.85 67.39-7.63 115.1-48.08 159.87-83.4 15.57-12.28 34.17-25.2 50.87-38.57s35.91-27 47.5-40.22c13.82-15.77 19.82-38.94 33.89-55.35 6.42-7.46 17-13.42 24.58-21 33.44-33.3 86.36-66.9 158.86-49.18 20.25 4.94 49.06 20.31 63.93 34.65 15.83-6.44 26.6-25.84 47.85-21.42.34 30.47-9.82 63.5-13.07 99.37C646.69 93 688 48.11 738.58 22.74c16.07-8.09 29.25-23.05 46.36-12.85.06 24.43-5.15 39.36-3.82 61.61C795.21 70.68 813 55.2 834 51.68c29.77-5 67-2.51 72 20.83-15.95 8.83-27.85 21.64-42.68 31.58-47.52 66.46-103.76 124.3-171.5 170.79-3-38.2 3-82 17.89-108-29.47 13.33-57.51 42.61-90.44 58.13 5.59 38.37 5.46 70.31.47 111.09 7.57 7 17.66 11.36 26.95 16.56-4.22 20.41-16 33.33-25.7 48.35 21.39-6.35 44.91-9.45 69.62-15 35.65-8 72.54-22.72 106.36-8.88-10.94 16-27.69 26.25-40.84 40.09 54.4 2.29 116.78-9.19 173.19 3.51"/><path class="c" d="M913.45 460.33c-1.39 11.05 3.35 20 .52 27.33-48.92-12.44-123.56-21.48-173.13-.09-23.93 10.31-47.69 40.15-30.24 72.36 29.33 54.11 140.58 35.56 200.23 23.5-1 8.47-1.95 17.07-1.14 27.38-92.88 13.52-215.25 27.71-271.86-27.26-15.35-14.91-28.38-47.65-14.79-76.62 34.49-73.55 212.62-66.22 290.41-46.6m-469 108.12c-14.21-27.27-30.78-52-48.07-76-16.38 25.73-34.59 49.62-50.15 76.16 37-.25 70.34-2.44 98.21-.17M567 622.5c-23.4-.26-53.88.4-84.87 1.63a213 213 0 0 0-18.87-28.68c-49.12-1.74-96.26.56-133.19-.87-10.9 6-13.2 20.48-22.77 27.79-30.08.6-68.35 1.74-86.55-.05 41.68-60.5 83.48-120.87 128.07-178.49 34.17-.16 59.08 1.39 99.89-.22C487 504.46 529.61 560.69 567 622.5m320.28 34.87c1.13 4.85 15.52 7.32 16.67 1.39-3-4.42-11.68-3.8-16.67-1.39m36.85 11.27c-15.64.8-22 .55-38.28.74 3.37 18 28.92 8.72 38.43 7.8-8.68 17.59-50.46 12.22-56.61-.63-15.11-31.67 54.92-45.16 56.45-7.91m-87-22.27a194.92 194.92 0 0 1 23.33 1.26c-11.19 16.09-13.25 47.09-40.82 41.8-7.63-12.81-15.42-25.43-20.76-40.6 9.76-1.38 10.73-1.33 19.94-2.11 4.19 5.42 5.69 13.69 10.35 18.6 3.16-5.8 6.88-11.08 8-19m-45.19-12.8l.2 10.25c-3.76 2.75-16.11 3-20 .38L772 634zm.3 15.37c-.22 16.51-1.7 23.29.75 39.29-4 3.34-13.36 1.34-19.94 2.1-4.06-12.41.42-24.88-.82-42.72 4.09 3.2 13.39.83 20 1.33m-38.65-16.29A280.48 280.48 0 0 1 753 689c-5.62 3.07-9.8-1.12-18.3.35 1.43-19.71-2-32 2.27-54.73 3.52-1.51 8.05-1.9 16.6-2m-127.5 34.92c-2.42 10.77 14.06 15.8 18.46 8.18-6.19-2.71-8.8-9.21-18.46-8.18m13.15-8.8c.33-6.17.19-11.83-6.86-10.12-3.74 4.5 0 11.55 6.86 10.12m40 2.65c1.26 9.63-3.36 13.44-6.29 18.92a15.5 15.5 0 0 0 10.12 6.64c-24.61-2.49-63.42 12.43-75.15-12.22.84-7 4.66-11.05 11.42-12.18-1.29-6.19-7.44-7.18-5.33-17 15-21.81 67.07 4.88 30.32 18.21a22.3 22.3 0 0 0 13.51 8.24c4.76-.34 2.91-7.21 3.11-12 6.12.42 14.69-1.76 18.33 1.35m-149.43 20c10-.13 13.62-18 4.51-25.73-23-2.77-15.47 25.83-4.51 25.72m-12.24-30.51c26.25-7.84 45.88 2.32 38.74 23.19-7.26 21.19-50.52 18.87-54.95-.66-3.54-15.56 4.6-19.08 16.21-22.53m-26.95-16.59c1.31 5.19-2.78 5.08-1.47 10.28l-18.31.35-.2-10.25c4.65-1.86 15.51-3.57 20-.38m-1.4 13.7c.06 16 1.32 31.21-.89 41l-16.63.32L471 650c3.51-3.24 12.18-1.4 18.28-2.05M425 681.64c6.8-2.17 5.72-19.36 2.83-25.68-16.52-3.91-17.2 27.3-2.83 25.68M449 635c-2.57 17.92-.9 37.87-2.31 53-14.07 1.07-24.35-3.21-36.62.7-10.13-3.83-15.46-19.77-10.64-34 7.63-3.81 16.07-9.4 26.53-5.64 4.77-2.25.56-9.75 3-17.14 9 .79 11.95-.35 20 3m-71.35 11.62c3.88 10.39 1.23 27.73 2.45 41-4.58 1.21-20.36 6-20-3-6.63 2.65-17.32 5.48-24.93 2.18-8-6-4.68-24.09-5.72-37.48 26.14-9.17 16.22 15.42 20.56 30.36l8.32-.16c6.84-4.42 1.3-21.05 2.73-30.81 6.67.43 9.18-3.24 16.61-2m-61.51 4.61c.78 6.9-10.34 2.07-14.91 3.7l.43 22.21c.58 6.93 10.94 3.43 15.1 6.55-5.16 10.43-27.59 4.18-33.31-1.07-3.85-8.47 2.56-23.85-7.21-28.92 0-7.31 7.78-6.83 4.66-17.18l18.31-.35c2.82 2.22.74 9.66 3.55 11.9 5 .44 12.91-2.15 13.38 3.17m-76.45 6.58c7.34 8.45 27.26 3.48 25.4 21.74-6.2 11.17-37.77 12.56-48.2 4.34 1.87-2.06 1.76-6.08 1.47-10.28 3.95 5.59 16.64 9.48 25.07 4.64-8-9.35-28.26-2.41-27-18.29 1.07-13.45 43.57-23.52 48.21-2.64-7.92.84-18.47-4.63-25 .48"/></g></svg>