<svg xmlns="http://www.w3.org/2000/svg" viewBox="0 0 932.24 428.87"><defs><style>.b{fill:#23b2e7}</style></defs><path d="M100.23 223.16H35.25v-63.04H0v165.3h35.25v-67.14h64.98v67.14h35.26v-165.3h-35.26v63.04zm419.11-63.04h-35.25v165.3h35.25v-39.69l103.24 43.51v-44l-97.71-38.45a2.48 2.48 0 0 1-.06-4.6L622.57 201v-40.88l-103.23 40.62zM640.46 214v111.4h35.25v-67.12h100.38v-35.12H675.71v-6.77a21.6 21.6 0 0 1 21.6-21.6h78.78v-34.67h-81.74A53.89 53.89 0 0 0 640.46 214zM897 160.12v98.18a28.8 28.8 0 0 1-28.8 28.8h-11.9a28.8 28.8 0 0 1-28.8-28.8v-98.18h-35.27v105.31a60 60 0 0 0 60 60h20a60 60 0 0 0 60-60V160.12zm-663.7-1.8q-24.73 0-32.78 21.61L147 325.42h43.53l41.46-125a1.86 1.86 0 0 1 3.52 0l40.21 125h43.53l-53.44-145.49q-8.06-21.61-32.51-21.61zm234.76 95.05q0-8.56-8.26-17.11-12.25-12.61-36.73-12.61h-52.29q-10.72-.91-10.71-9.46v-19h105.1v-35.07H322.22v61.24q0 15.76 12.24 25.22T366 256l56.71.45c7.35 0 7.82 3 7.82 9v12.16c0 5.7-.37 12.2-7.51 13.11h-55.44c-7.14-.9-7.51-7.41-7.51-13.11v-2.25h-37.72l-.12 14.9v.45q0 34.66 50.18 34.67H415c33.45 0 53.36-11.57 53.38-34.67v-.45l-.12-14.9zM36.75 388.28a24.15 24.15 0 0 1-.13 2.77 6.51 6.51 0 0 1-.38 1.69 1.67 1.67 0 0 1-.67.84 2.15 2.15 0 0 1-1.06.23 4.71 4.71 0 0 1-1.15-.16l-1.44-.35q-.8-.19-1.76-.35a12.64 12.64 0 0 0-2.12-.16 9.45 9.45 0 0 0-2.69.4 12.71 12.71 0 0 0-2.79 1.24 18.84 18.84 0 0 0-3 2.25 39 39 0 0 0-3.37 3.47v26.05a1.08 1.08 0 0 1-.39.82 3.12 3.12 0 0 1-1.31.59A15.23 15.23 0 0 1 12 428q-1.54.12-3.91.12T4.17 428a15.23 15.23 0 0 1-2.47-.35A3.11 3.11 0 0 1 .38 427a1.08 1.08 0 0 1-.38-.8v-41.82a1.18 1.18 0 0 1 .32-.82 2.46 2.46 0 0 1 1.16-.56 12.13 12.13 0 0 1 2.15-.35q1.31-.12 3.3-.12t3.4.12a10.13 10.13 0 0 1 2.08.35 2.41 2.41 0 0 1 1.06.59 1.18 1.18 0 0 1 .32.82v5.2a37.69 37.69 0 0 1 4.21-3.89 23.4 23.4 0 0 1 3.78-2.41 14.23 14.23 0 0 1 3.59-1.24 18.65 18.65 0 0 1 3.59-.35c.55 0 1.15 0 1.8.07s1.3.13 2 .23a17.08 17.08 0 0 1 1.8.38 4.08 4.08 0 0 1 1.12.45 1.57 1.57 0 0 1 .51.52 3.3 3.3 0 0 1 .29.77 8.41 8.41 0 0 1 .19 1.48q.08.97.08 2.66zm55.81 38.06a1.15 1.15 0 0 1-.64 1 5.46 5.46 0 0 1-2 .54 37.37 37.37 0 0 1-4.07.16 37.87 37.87 0 0 1-4.2-.16 4.41 4.41 0 0 1-1.86-.54 1.18 1.18 0 0 1-.55-1V423a27.18 27.18 0 0 1-8 4.31 30.86 30.86 0 0 1-10 1.55 37.79 37.79 0 0 1-8.37-.87 21.79 21.79 0 0 1-6.61-2.58 12.74 12.74 0 0 1-4.33-4.24 11.14 11.14 0 0 1-1.54-5.91 10.52 10.52 0 0 1 2-6.35 14.26 14.26 0 0 1 5.84-4.45 36.31 36.31 0 0 1 9.65-2.6 93.76 93.76 0 0 1 13.25-.86h5.58v-2.53a10 10 0 0 0-.55-3.45 5.51 5.51 0 0 0-1.8-2.46 8.28 8.28 0 0 0-3.36-1.43 24 24 0 0 0-5.16-.47 35.85 35.85 0 0 0-7.22.66 52.19 52.19 0 0 0-5.62 1.46q-2.44.8-4.07 1.45a7.57 7.57 0 0 1-2.66.66 2.37 2.37 0 0 1-1.25-.33 2.56 2.56 0 0 1-.9-.94 5.19 5.19 0 0 1-.55-1.5 9.35 9.35 0 0 1-.19-2 6.64 6.64 0 0 1 .32-2.3 3.5 3.5 0 0 1 1.3-1.49 13 13 0 0 1 3.14-1.5 45.77 45.77 0 0 1 5.26-1.52 64 64 0 0 1 6.57-1.15 59.13 59.13 0 0 1 7.35-.45 59.32 59.32 0 0 1 11.51 1 22.61 22.61 0 0 1 7.86 3 11.82 11.82 0 0 1 4.49 5.13 18.1 18.1 0 0 1 1.41 7.45zm-15.85-17.91h-6.15a44.94 44.94 0 0 0-6.67.42 15.85 15.85 0 0 0-4.49 1.27 6.23 6.23 0 0 0-2.53 2 4.8 4.8 0 0 0-.8 2.74 4.69 4.69 0 0 0 2.27 4.14 11.4 11.4 0 0 0 6.32 1.5 15.26 15.26 0 0 0 6.25-1.27 25.4 25.4 0 0 0 5.8-3.7zm-5.64-44.58a4.32 4.32 0 0 1 1.09-.89 5.53 5.53 0 0 1 1.6-.59 16.59 16.59 0 0 1 2.44-.3q1.47-.09 3.59-.09a44.8 44.8 0 0 1 4.65.19 8.25 8.25 0 0 1 2.44.54q.74.35.67.82a1.73 1.73 0 0 1-.64 1l-12.44 10.85a6.31 6.31 0 0 1-1 .77 4.66 4.66 0 0 1-1.31.49 13.78 13.78 0 0 1-2 .28q-1.27.08-3.16.08a35.21 35.21 0 0 1-3.56-.14 4.92 4.92 0 0 1-1.83-.45.7.7 0 0 1-.42-.77 2.42 2.42 0 0 1 .67-1.08zm91.85 62.35a1.24 1.24 0 0 1-.32.87 2.42 2.42 0 0 1-1.09.59 9.82 9.82 0 0 1-2.08.33q-1.31.09-3.24.09t-3.34-.09a10.31 10.31 0 0 1-2.08-.33 2.71 2.71 0 0 1-1.15-.59 1.17 1.17 0 0 1-.35-.87v-4.64a37.34 37.34 0 0 1-9.27 5.39 28.89 28.89 0 0 1-10.74 1.92 29.24 29.24 0 0 1-11.08-1.87 20 20 0 0 1-7.38-5 19 19 0 0 1-4.14-7.34 30 30 0 0 1-1.28-8.84 28.94 28.94 0 0 1 1.64-10 20.62 20.62 0 0 1 4.78-7.59 20.91 20.91 0 0 1 7.83-4.83 31.7 31.7 0 0 1 10.78-1.69 25.26 25.26 0 0 1 8.72 1.43 32.4 32.4 0 0 1 7.76 4.2V364.7a1.2 1.2 0 0 1 .35-.84 2.8 2.8 0 0 1 1.28-.63 14.54 14.54 0 0 1 2.47-.4q1.54-.14 3.91-.14t3.91.14a13.75 13.75 0 0 1 2.44.4 3.06 3.06 0 0 1 1.28.63 1.15 1.15 0 0 1 .38.84zm-16-27.94a32.64 32.64 0 0 0-6.64-4.87 14 14 0 0 0-6.64-1.69 11.9 11.9 0 0 0-5.42 1.15 9.88 9.88 0 0 0-3.66 3.07 13.75 13.75 0 0 0-2.05 4.29 17.66 17.66 0 0 0-.67 4.85 22.44 22.44 0 0 0 .58 5.11 13.1 13.1 0 0 0 1.89 4.43 9.63 9.63 0 0 0 3.5 3.12 11.57 11.57 0 0 0 5.52 1.17 14.81 14.81 0 0 0 3.24-.35 14.64 14.64 0 0 0 3.21-1.15 21.33 21.33 0 0 0 3.37-2.09q1.73-1.29 3.78-3.16zm49.62-28.03q0 3.56-2 4.92t-7.38 1.36q-5.45 0-7.34-1.31t-1.89-4.73q0-3.56 2-4.95t7.41-1.38q5.39 0 7.31 1.34t1.89 4.75zm-1.22 56a1.08 1.08 0 0 1-.39.82 3.12 3.12 0 0 1-1.31.59 15.23 15.23 0 0 1-2.47.35q-1.54.12-3.91.12t-3.91-.12a15.23 15.23 0 0 1-2.47-.35 3.11 3.11 0 0 1-1.31-.59 1.08 1.08 0 0 1-.38-.82v-41.75a1.08 1.08 0 0 1 .38-.82 3.29 3.29 0 0 1 1.31-.61 14.54 14.54 0 0 1 2.47-.4q1.54-.14 3.91-.14t3.91.14a14.54 14.54 0 0 1 2.47.4 3.3 3.3 0 0 1 1.31.61 1.08 1.08 0 0 1 .39.82zm73.95-21.36a24.1 24.1 0 0 1-1.92 9.75 20.07 20.07 0 0 1-5.84 7.59 27.72 27.72 0 0 1-9.81 4.92 49.11 49.11 0 0 1-13.79 1.73 50.57 50.57 0 0 1-13.28-1.55 25.88 25.88 0 0 1-9.36-4.5 18 18 0 0 1-5.52-7.27 25.42 25.42 0 0 1-1.8-9.84 23.92 23.92 0 0 1 2-9.77 20.1 20.1 0 0 1 5.87-7.59 28 28 0 0 1 9.78-4.9 48.78 48.78 0 0 1 13.76-1.73 51.61 51.61 0 0 1 13.34 1.52 25.29 25.29 0 0 1 9.33 4.48 18.1 18.1 0 0 1 5.48 7.27 25.55 25.55 0 0 1 1.76 9.89zm-16.61.47a22.72 22.72 0 0 0-.67-5.7 11.44 11.44 0 0 0-2.28-4.52 10.62 10.62 0 0 0-4.26-3 18 18 0 0 0-6.7-1.08 18.69 18.69 0 0 0-6.29 1 11 11 0 0 0-4.43 2.81 12 12 0 0 0-2.6 4.45 18.76 18.76 0 0 0-.87 5.93 21.65 21.65 0 0 0 .71 5.7 12 12 0 0 0 2.28 4.52 10.15 10.15 0 0 0 4.27 3 18.39 18.39 0 0 0 6.67 1.05 18.93 18.93 0 0 0 6.35-1 11.12 11.12 0 0 0 4.43-2.79 11.39 11.39 0 0 0 2.57-4.43 19.4 19.4 0 0 0 .82-5.94zm-10.9-41.48a4.3 4.3 0 0 1 1.09-.89 5.52 5.52 0 0 1 1.6-.59 16.62 16.62 0 0 1 2.44-.3q1.47-.09 3.59-.09a44.76 44.76 0 0 1 4.65.19 8.25 8.25 0 0 1 2.44.54c.49.23.72.51.67.82a1.73 1.73 0 0 1-.64 1l-12.44 10.88a6.38 6.38 0 0 1-1 .77 4.68 4.68 0 0 1-1.32.49 13.72 13.72 0 0 1-2 .28q-1.22.09-3.08.09a35.23 35.23 0 0 1-3.56-.14 4.92 4.92 0 0 1-1.83-.45.7.7 0 0 1-.42-.77 2.4 2.4 0 0 1 .67-1.08zm89.03 62.48a1.15 1.15 0 0 1-.64 1 5.46 5.46 0 0 1-2 .54 37.37 37.37 0 0 1-4.07.16 37.87 37.87 0 0 1-4.2-.16 4.41 4.41 0 0 1-1.86-.54 1.18 1.18 0 0 1-.55-1V423a27.18 27.18 0 0 1-8.05 4.31 30.86 30.86 0 0 1-10 1.55A37.79 37.79 0 0 1 291 428a21.79 21.79 0 0 1-6.61-2.58 12.74 12.74 0 0 1-4.33-4.24 11.14 11.14 0 0 1-1.54-5.91 10.52 10.52 0 0 1 2-6.35 14.26 14.26 0 0 1 5.84-4.45 36.31 36.31 0 0 1 9.65-2.6 93.76 93.76 0 0 1 13.41-.84H315v-2.53a10 10 0 0 0-.55-3.45 5.51 5.51 0 0 0-1.8-2.46 8.28 8.28 0 0 0-3.34-1.45 24 24 0 0 0-5.16-.47 35.85 35.85 0 0 0-7.22.66 52.19 52.19 0 0 0-5.61 1.45q-2.44.8-4.07 1.45a7.57 7.57 0 0 1-2.66.66 2.37 2.37 0 0 1-1.25-.33 2.56 2.56 0 0 1-.9-.94 5.19 5.19 0 0 1-.55-1.5 9.35 9.35 0 0 1-.19-2 6.64 6.64 0 0 1 .32-2.3 3.5 3.5 0 0 1 1.22-1.52 13 13 0 0 1 3.14-1.5 45.77 45.77 0 0 1 5.26-1.52 64 64 0 0 1 6.58-1.15 65.81 65.81 0 0 1 18.86.52 22.61 22.61 0 0 1 7.86 3 11.82 11.82 0 0 1 4.49 5.13 18.1 18.1 0 0 1 1.41 7.45zm-15.84-17.91h-6.16a44.94 44.94 0 0 0-6.67.42 15.85 15.85 0 0 0-4.49 1.27 6.23 6.23 0 0 0-2.53 2 4.8 4.8 0 0 0-.8 2.74 4.69 4.69 0 0 0 2.28 4.13 11.4 11.4 0 0 0 6.32 1.5 15.26 15.26 0 0 0 6.25-1.27 25.4 25.4 0 0 0 5.8-3.7zm122.96 17.77a1.08 1.08 0 0 1-.38.82 3.08 3.08 0 0 1-1.28.59 14.42 14.42 0 0 1-2.44.35q-1.54.12-3.91.12t-4-.12a15.21 15.21 0 0 1-2.47-.35 2.83 2.83 0 0 1-1.28-.59 1.12 1.12 0 0 1-.35-.82v-24.8a12.81 12.81 0 0 0-.55-3.84 7.94 7.94 0 0 0-1.67-3 7.49 7.49 0 0 0-2.82-1.92 11 11 0 0 0-4.07-.68 11.94 11.94 0 0 0-5.84 1.64 35.59 35.59 0 0 0-6.41 4.78v27.8a1.08 1.08 0 0 1-.38.82 3.14 3.14 0 0 1-1.32.59 15.23 15.23 0 0 1-2.47.35q-1.54.12-3.85.12t-3.91-.12a15.18 15.18 0 0 1-2.47-.35 3.12 3.12 0 0 1-1.32-.59 1.08 1.08 0 0 1-.38-.82V401.4a12.81 12.81 0 0 0-.55-3.84 8.17 8.17 0 0 0-1.64-3 7.16 7.16 0 0 0-2.82-1.92 11 11 0 0 0-4-.68 12 12 0 0 0-5.9 1.64 33.91 33.91 0 0 0-6.35 4.78v27.8a1.08 1.08 0 0 1-.39.82 3.12 3.12 0 0 1-1.31.59 15.23 15.23 0 0 1-2.47.35q-1.54.12-3.91.12t-3.91-.12a15.23 15.23 0 0 1-2.47-.35 3.11 3.11 0 0 1-1.31-.59 1.08 1.08 0 0 1-.38-.82v-41.8a1.18 1.18 0 0 1 .32-.82 2.46 2.46 0 0 1 1.15-.59 12.13 12.13 0 0 1 2.15-.35q1.31-.12 3.3-.12t3.4.12a10.13 10.13 0 0 1 2.08.35 2.41 2.41 0 0 1 1.06.59 1.18 1.18 0 0 1 .32.82v4.83a38.08 38.08 0 0 1 9.46-5.62 26.39 26.39 0 0 1 9.85-1.87 34 34 0 0 1 6.35.54 22.17 22.17 0 0 1 5 1.55 15.49 15.49 0 0 1 3.82 2.41 14.35 14.35 0 0 1 2.69 3.14 45.58 45.58 0 0 1 5-3.47 32.22 32.22 0 0 1 4.88-2.37 27.79 27.79 0 0 1 4.81-1.36 26.9 26.9 0 0 1 4.91-.45 28.65 28.65 0 0 1 9.62 1.41 16.76 16.76 0 0 1 6.32 3.82 13.82 13.82 0 0 1 3.43 5.65 22.49 22.49 0 0 1 1 6.84zm64.59.14a1.15 1.15 0 0 1-.64 1 5.46 5.46 0 0 1-2 .54 37.37 37.37 0 0 1-4.07.16 37.87 37.87 0 0 1-4.2-.16 4.41 4.41 0 0 1-1.86-.54 1.18 1.18 0 0 1-.55-1V423a27.18 27.18 0 0 1-8 4.31 30.86 30.86 0 0 1-10 1.55 37.79 37.79 0 0 1-8.37-.87 21.79 21.79 0 0 1-6.61-2.58 12.74 12.74 0 0 1-4.33-4.24 11.14 11.14 0 0 1-1.54-5.91 10.52 10.52 0 0 1 2-6.35 14.26 14.26 0 0 1 5.84-4.45 36.31 36.31 0 0 1 9.65-2.6 93.76 93.76 0 0 1 13.41-.84h5.58v-2.53a10 10 0 0 0-.55-3.45 5.51 5.51 0 0 0-1.8-2.46 8.28 8.28 0 0 0-3.34-1.45 24 24 0 0 0-5.16-.47 35.85 35.85 0 0 0-7.22.66 52.19 52.19 0 0 0-5.61 1.45q-2.44.8-4.07 1.45a7.57 7.57 0 0 1-2.66.66 2.37 2.37 0 0 1-1.25-.33 2.56 2.56 0 0 1-.9-.94 5.19 5.19 0 0 1-.55-1.5 9.35 9.35 0 0 1-.19-2 6.64 6.64 0 0 1 .32-2.3 3.5 3.5 0 0 1 1.22-1.52 13 13 0 0 1 3.14-1.5 45.77 45.77 0 0 1 5.26-1.52 64 64 0 0 1 6.57-1.15 65.81 65.81 0 0 1 18.86.52 22.61 22.61 0 0 1 7.86 3 11.82 11.82 0 0 1 4.49 5.13 18.1 18.1 0 0 1 1.41 7.45zm-15.84-17.91h-6.16a44.94 44.94 0 0 0-6.67.42 15.85 15.85 0 0 0-4.49 1.27 6.23 6.23 0 0 0-2.53 2 4.8 4.8 0 0 0-.8 2.74 4.69 4.69 0 0 0 2.28 4.13 11.4 11.4 0 0 0 6.32 1.5 15.26 15.26 0 0 0 6.25-1.27 25.4 25.4 0 0 0 5.8-3.7zm64.59 13.64a10.94 10.94 0 0 1-.35 3.16 3.1 3.1 0 0 1-.93 1.55 5.52 5.52 0 0 1-1.7.8 20.39 20.39 0 0 1-2.63.61q-1.51.26-3.27.4t-3.56.14a34.37 34.37 0 0 1-8.34-.89 15.13 15.13 0 0 1-5.84-2.74 10.93 10.93 0 0 1-3.4-4.66 18.36 18.36 0 0 1-1.09-6.66v-21.43h-6.86a2 2 0 0 1-1.86-1.1 7.73 7.73 0 0 1-.64-3.68 13.81 13.81 0 0 1 .16-2.3 4.3 4.3 0 0 1 .48-1.48 1.91 1.91 0 0 1 .8-.77 2.53 2.53 0 0 1 1.12-.23h6.8v-9.33a1.2 1.2 0 0 1 .35-.84 2.8 2.8 0 0 1 1.28-.63 13.46 13.46 0 0 1 2.5-.37q1.57-.12 3.88-.12t3.95.12a12.8 12.8 0 0 1 2.47.38 3.06 3.06 0 0 1 1.28.63 1.15 1.15 0 0 1 .39.84v9.33h12.44a2.53 2.53 0 0 1 1.12.23 1.91 1.91 0 0 1 .8.77 4.34 4.34 0 0 1 .48 1.48 14 14 0 0 1 .16 2.3 7.73 7.73 0 0 1-.64 3.68 2 2 0 0 1-1.86 1.1h-12.5V412a7.68 7.68 0 0 0 1.47 5.13q1.47 1.71 5.26 1.71a14.73 14.73 0 0 0 2.31-.16q1-.16 1.83-.37l1.35-.37a3.47 3.47 0 0 1 1-.16 1.73 1.73 0 0 1 .74.16 1.13 1.13 0 0 1 .54.66 7.62 7.62 0 0 1 .35 1.34 12 12 0 0 1 .16 2.13zm68.25-17.2a24.1 24.1 0 0 1-1.92 9.75 20.07 20.07 0 0 1-5.84 7.59 27.72 27.72 0 0 1-9.81 4.92 49.11 49.11 0 0 1-13.79 1.73 50.57 50.57 0 0 1-13.28-1.55 25.88 25.88 0 0 1-9.36-4.5 18 18 0 0 1-5.52-7.27 25.42 25.42 0 0 1-1.8-9.84 23.92 23.92 0 0 1 2-9.77 20.1 20.1 0 0 1 5.87-7.59 28 28 0 0 1 9.78-4.9 48.78 48.78 0 0 1 13.76-1.73 51.61 51.61 0 0 1 13.34 1.52 25.29 25.29 0 0 1 9.33 4.48 18.1 18.1 0 0 1 5.44 7.29 25.55 25.55 0 0 1 1.8 9.87zM583 376.56a4.61 4.61 0 0 1-.93.61 4.36 4.36 0 0 1-1.15.35 13.64 13.64 0 0 1-1.64.16h-2.31q-2 0-3.24-.09a7 7 0 0 1-1.86-.33q-.61-.23-.61-.61a1.66 1.66 0 0 1 .45-.94l9.68-11.39a4.91 4.91 0 0 1 1-.89 4.67 4.67 0 0 1 1.48-.59 16.1 16.1 0 0 1 2.21-.33q1.31-.12 3.3-.12 3 0 4.84.19a8.43 8.43 0 0 1 2.6.56c.51.25.71.55.58.91a3.67 3.67 0 0 1-1.15 1.34zm19.88 28.78a22.72 22.72 0 0 0-.67-5.7 11.44 11.44 0 0 0-2.28-4.52 10.62 10.62 0 0 0-4.26-3A18 18 0 0 0 589 391a18.69 18.69 0 0 0-6.29 1 11 11 0 0 0-4.43 2.81 12 12 0 0 0-2.6 4.45 18.76 18.76 0 0 0-.87 5.93 21.65 21.65 0 0 0 .71 5.7 12 12 0 0 0 2.28 4.52 10.15 10.15 0 0 0 4.27 3 18.39 18.39 0 0 0 6.67 1.05 18.93 18.93 0 0 0 6.35-1 11.12 11.12 0 0 0 4.42-2.79 11.39 11.39 0 0 0 2.57-4.43 19.4 19.4 0 0 0 .8-5.9zm4-28.83a4.19 4.19 0 0 1-1.09.66 6 6 0 0 1-1.35.35 17.22 17.22 0 0 1-1.76.16h-2.47a22.29 22.29 0 0 1-5.1-.37q-1.31-.37-.29-1.45L606.35 364a3.57 3.57 0 0 1 1-.75 6.39 6.39 0 0 1 1.54-.47 17.6 17.6 0 0 1 2.47-.26q1.51-.07 3.95-.07a27.84 27.84 0 0 1 4.07.23 5.75 5.75 0 0 1 2.12.63q.61.4.42.94a2.74 2.74 0 0 1-1 1.15zM669 388.28a24.15 24.15 0 0 1-.13 2.77 6.51 6.51 0 0 1-.38 1.69 1.67 1.67 0 0 1-.67.84 2.15 2.15 0 0 1-1.06.23 4.71 4.71 0 0 1-1.15-.16l-1.44-.35q-.8-.19-1.76-.35a12.64 12.64 0 0 0-2.12-.16 9.45 9.45 0 0 0-2.69.4 12.71 12.71 0 0 0-2.79 1.24 18.84 18.84 0 0 0-3 2.25 39 39 0 0 0-3.37 3.47v26.05a1.08 1.08 0 0 1-.39.82 3.12 3.12 0 0 1-1.31.59 15.23 15.23 0 0 1-2.47.35q-1.54.12-3.91.12t-3.91-.12a15.23 15.23 0 0 1-2.47-.35 3.11 3.11 0 0 1-1.31-.59 1.08 1.08 0 0 1-.38-.82v-41.82a1.18 1.18 0 0 1 .32-.82 2.46 2.46 0 0 1 1.15-.59 12.13 12.13 0 0 1 2.15-.35q1.31-.12 3.3-.12t3.4.12a10.13 10.13 0 0 1 2.08.35 2.41 2.41 0 0 1 1.06.59 1.18 1.18 0 0 1 .32.82v5.2a37.69 37.69 0 0 1 4.23-3.87 23.4 23.4 0 0 1 3.78-2.41 14.23 14.23 0 0 1 3.59-1.24 18.65 18.65 0 0 1 3.59-.35c.55 0 1.15 0 1.8.07s1.3.13 2 .23a17.08 17.08 0 0 1 1.8.38 4.08 4.08 0 0 1 1.12.45 1.57 1.57 0 0 1 .51.52 3.3 3.3 0 0 1 .29.77 8.41 8.41 0 0 1 .19 1.48q.03.98.03 2.67zm92.83 37.96a1.13 1.13 0 0 1-.35.82 2.7 2.7 0 0 1-1.28.56 17.93 17.93 0 0 1-2.53.33q-1.6.12-4.17.12t-4.27-.09a20.05 20.05 0 0 1-2.69-.3 4.74 4.74 0 0 1-1.64-.59 3.94 3.94 0 0 1-1-1l-19.05-22v22.11a1.08 1.08 0 0 1-.39.82 3.12 3.12 0 0 1-1.31.59 15.23 15.23 0 0 1-2.47.35q-1.54.12-3.91.12t-3.91-.12a15.23 15.23 0 0 1-2.47-.35A3.11 3.11 0 0 1 709 427a1.08 1.08 0 0 1-.38-.82v-61.62a1.15 1.15 0 0 1 .38-.84 3.08 3.08 0 0 1 1.31-.63 14.54 14.54 0 0 1 2.47-.4q1.54-.14 3.91-.14t3.91.14a14.54 14.54 0 0 1 2.47.4 3.09 3.09 0 0 1 1.31.63 1.15 1.15 0 0 1 .39.84v36.7l16.93-16.64a6.06 6.06 0 0 1 1.15-1 5.11 5.11 0 0 1 1.7-.66 19 19 0 0 1 2.63-.35q1.57-.12 4-.12t4 .12a17.3 17.3 0 0 1 2.63.35 3.19 3.19 0 0 1 1.38.59 1.13 1.13 0 0 1 .39.87 2.93 2.93 0 0 1-.48 1.5 8 8 0 0 1-1.44 1.69L741 401.49l19.37 21.89a9.81 9.81 0 0 1 1.12 1.62 2.74 2.74 0 0 1 .34 1.24zm26.05-.04a1.08 1.08 0 0 1-.39.82 3.11 3.11 0 0 1-1.31.59 15.32 15.32 0 0 1-2.47.35c-1 .08-2.33.12-3.91.12s-2.89 0-3.92-.12a15.21 15.21 0 0 1-2.47-.35 3.11 3.11 0 0 1-1.31-.59 1.08 1.08 0 0 1-.39-.82v-61.64a1.16 1.16 0 0 1 .39-.84 3.08 3.08 0 0 1 1.31-.63 14.52 14.52 0 0 1 2.47-.4c1-.09 2.33-.14 3.92-.14s2.88 0 3.91.14a14.63 14.63 0 0 1 2.47.4 3.08 3.08 0 0 1 1.31.63 1.16 1.16 0 0 1 .39.84zm70.36 0a1.18 1.18 0 0 1-.32.82 2.47 2.47 0 0 1-1.12.59 11.41 11.41 0 0 1-2.12.35q-1.32.12-3.3.12t-3.43-.12a10.67 10.67 0 0 1-2.08-.35 2.4 2.4 0 0 1-1.09-.59 1.17 1.17 0 0 1-.32-.82v-4.83a36.87 36.87 0 0 1-9.66 5.63 28.26 28.26 0 0 1-10.17 1.88 30.21 30.21 0 0 1-9.91-1.41 17.14 17.14 0 0 1-6.48-3.84 14 14 0 0 1-3.53-5.65 25.93 25.93 0 0 1-1.06-8v-25.6a1.11 1.11 0 0 1 .35-.82 2.83 2.83 0 0 1 1.28-.59 15.3 15.3 0 0 1 2.5-.35q1.57-.12 3.88-.12t3.91.12a15.26 15.26 0 0 1 2.47.35 3.11 3.11 0 0 1 1.31.59 1.07 1.07 0 0 1 .39.82V408a16.75 16.75 0 0 0 .57 5 7.59 7.59 0 0 0 4.78 4.9 12.21 12.21 0 0 0 4.27.68 13.18 13.18 0 0 0 6.19-1.64 34.32 34.32 0 0 0 6.64-4.78v-27.8a1.11 1.11 0 0 1 .35-.82 2.83 2.83 0 0 1 1.28-.59 15.21 15.21 0 0 1 2.47-.35q1.54-.12 3.91-.12t3.92.12a14.45 14.45 0 0 1 2.44.35 3.08 3.08 0 0 1 1.28.59 1.08 1.08 0 0 1 .38.82zm73.83-21.47a28.42 28.42 0 0 1-1.67 10 20.4 20.4 0 0 1-12.54 12.42 30 30 0 0 1-10.42 1.69 34.33 34.33 0 0 1-5.39-.4 23.06 23.06 0 0 1-4.78-1.29 28.31 28.31 0 0 1-4.49-2.25 39.26 39.26 0 0 1-4.52-3.28v4.55a1.18 1.18 0 0 1-.35.87 2.7 2.7 0 0 1-1.15.59 10.54 10.54 0 0 1-2.15.33q-1.35.09-3.27.09c-1.33 0-2.43 0-3.31-.09a10.44 10.44 0 0 1-2.12-.33 2.44 2.44 0 0 1-1.12-.59 1.23 1.23 0 0 1-.32-.87v-61.61a1.15 1.15 0 0 1 .38-.84 3.12 3.12 0 0 1 1.32-.63 14.52 14.52 0 0 1 2.47-.4q1.54-.14 3.92-.14t3.91.14a14.58 14.58 0 0 1 2.47.4 3.1 3.1 0 0 1 1.32.63 1.15 1.15 0 0 1 .38.84v23.11a33 33 0 0 1 4.36-2.72 30.62 30.62 0 0 1 4.36-1.85 25.58 25.58 0 0 1 4.49-1.05 34.68 34.68 0 0 1 4.88-.33 27.91 27.91 0 0 1 10.77 1.85 18.86 18.86 0 0 1 11.29 12.33 30 30 0 0 1 1.28 8.83zm-16.74.84a24.05 24.05 0 0 0-.54-5.16 12.11 12.11 0 0 0-1.89-4.41 9.88 9.88 0 0 0-3.49-3.07 11.43 11.43 0 0 0-5.42-1.15 15.06 15.06 0 0 0-3.14.33 13.9 13.9 0 0 0-3.17 1.13 22.22 22.22 0 0 0-3.37 2.06 34.09 34.09 0 0 0-3.66 3.14v13.88a31.35 31.35 0 0 0 6.51 4.85 13.62 13.62 0 0 0 6.51 1.66 10.66 10.66 0 0 0 8.95-4.22 12 12 0 0 0 2.08-4.27 18.36 18.36 0 0 0 .63-4.77z" fill="#818285"/><path class="b" d="M233.17 294.32a21.07 21.07 0 1 1 21.07-21.07 21.09 21.09 0 0 1-21.07 21.07zm0-31.39a10.32 10.32 0 1 0 10.32 10.32 10.33 10.33 0 0 0-10.32-10.31zM407.64 90.11a8 8 0 0 1-5.7-2.39C356.45 41.47 296.73 16 233.77 16S111.09 41.47 65.61 87.72A8 8 0 0 1 54.2 76.5C102.72 27.17 166.49 0 233.77 0s131.06 27.17 179.58 76.5a8 8 0 0 1-5.7 13.61z"/><path class="b" d="M376.76 120a8 8 0 0 1-5.63-2.32c-37.4-37.09-86.18-57.51-137.35-57.51s-99.95 20.46-137.36 57.55a8 8 0 0 1-11.27-11.36c40.42-40.08 93.2-62.15 148.62-62.15S342 66.28 382.39 106.36a8 8 0 0 1-5.63 13.64z"/><path class="b" d="M376.76 120a8 8 0 0 1-5.63-2.32c-37.4-37.09-86.18-57.51-137.35-57.51s-99.95 20.46-137.36 57.55a8 8 0 0 1-11.27-11.36c40.42-40.08 93.2-62.15 148.62-62.15S342 66.28 382.39 106.36a8 8 0 0 1-5.63 13.64z"/><path class="b" d="M346.34 149.52a8 8 0 0 1-5.52-2.22c-29.41-28.1-67.43-43.58-107-43.58s-77.63 15.48-107 43.58a8 8 0 1 1-11.05-11.57c32.4-31 74.34-48 118.09-48s85.69 17.05 118.09 48a8 8 0 0 1-5.53 13.78z"/></svg>