<svg xmlns="http://www.w3.org/2000/svg" viewBox="0 0 899.89 367.95"><path fill="#f8981d" d="M0 0h535v175.41H0z"/><path fill="#6a6a6a" d="M535 175.41h364.89v192.55H535z"/><path d="M66.74 129.37h55.05v27.38h-87.9V18.35h32.85zm170.54-84.66h-65.9V73.1h51.81v26.06h-51.82v30.21h65.9v27.38h-98.85V18.35h98.85zm127.24 38.02v74h-14.8a109 109 0 0 0-4.61-15.92q-14.81 18-37.74 18-27.08 0-42.15-19.37t-15.07-50.02q0-33.05 16.07-53.13t43.65-20.08q23.12 0 37.31 13t17.34 34.57l-30.82 4.05q-3.75-25.14-23.83-25.14-13.18 0-19.92 11.91t-6.74 34q0 21.29 7.3 32.55t20.78 11.25a23.7 23.7 0 0 0 15.56-5.68q6.84-5.68 6.84-18.15h-26.05V82.73zM442 158.87q-28 0-43.26-21t-15.3-50.8q0-30.31 15.5-50.59t44.17-20.28q29 0 43.71 21.65T501.6 87.4q0 30.11-15.2 50.8T442 158.87zm.91-116.19q-25.5 0-25.5 44.81t25.5 44.92q24.69 0 24.69-44.81t-24.66-44.92zm141.28 182.7V284l39.09-58.58h28l-29.95 44.51 37.44 80.17h-32.2l-24.88-54.14-17.49 25.55v28.59h-28.69V225.38zM714.25 352q-25.19 0-39-18.91T661.5 287.3q0-27.31 14-45.58t39.79-18.27q26.1 0 39.38 19.5t13.28 44.62q0 27.13-13.69 45.76T714.25 352zm-13.84-140a10.12 10.12 0 0 1-7.85-3.2 10.65 10.65 0 0 1 .09-14.75 10.13 10.13 0 0 1 7.76-3.24 11.74 11.74 0 0 1 7.67 2.79 9.56 9.56 0 0 1 3.38 7.81 9.8 9.8 0 0 1-3.24 7.72 11.36 11.36 0 0 1-7.81 2.87zm14.66 35.26q-23 0-23 40.37t23 40.46q22.24 0 22.24-40.37t-22.24-40.42zM730.92 212a10.12 10.12 0 0 1-7.85-3.2 10.59 10.59 0 0 1 .14-14.75 10.27 10.27 0 0 1 7.81-3.24 11.4 11.4 0 0 1 7.67 2.83 9.71 9.71 0 0 1 3.29 7.76 9.81 9.81 0 0 1-3.24 7.72 11.36 11.36 0 0 1-7.82 2.88zm81.49 88.64v49.42H783V225.38h54.8q15.16 0 24.34 3.52t15.21 12.92a37.93 37.93 0 0 1 6 20.9q0 22.45-21.65 32.22l23 55.12h-32.22l-19.15-49.42zm0-53.07v31.79h17.9q8.77 0 12.74-1.23a14.07 14.07 0 0 0 7.08-5.48 16.06 16.06 0 0 0 3.11-9.73 15.06 15.06 0 0 0-3.11-9.32q-3.11-4.11-6.76-5.07t-13.7-1z" fill="#fff"/></svg>