<svg xmlns="http://www.w3.org/2000/svg" viewBox="0 0 636.63 525.56"><path d="M494.54 6.22C506.4 4.07 518.19 1.54 530.16 0c32.75 92.24 66.06 184.29 99 276.45 2.54 7.2 5.47 14.29 7.45 21.67C541.2 316.56 446 336 350.58 354.65c-64.92 13.09-129.93 25.72-194.85 38.81-22 3.87-43.72 9.14-65.79 12.6-6.65-24.47-14-48.74-20.94-73.14-3.29-12.14-7.49-24-10.06-36.37 10.79-5.51 21-14.65 22.62-27.32 2-19.56-11.4-38.88-29.73-45.3-5.17-2-10.7-2.83-16.08-4.07a8466.92 8466.92 0 0 0-25-109.27c1.16 9.46 3.55 18.83 2.82 28.45-1.63 18.58-3.2 37.17-4.95 55.75-.36 6-.69 12.13 1.15 17.91C33.54 299.22 56.53 386 80.62 472.42c4-20.88 6.32-42.07 10.38-62.92 2.43-2.64 7-1.87 10.23-3.06-2.47 24.52-7 48.79-9.91 73.26 14.24-2.64 28.32-6 42.57-8.52 2.17-6.68 4.83-13.2 6.49-20-1.3-5.66-5.17-10.41-7.39-15.75 27.94-5.5 55.81-11.38 83.65-17.37 2.31 5.24 5.19 10.24 7.12 15.64 1.08 2.46-.11 5-1 7.35-1.75 4.26-3.53 8.51-5.26 12.79 14.2-2.72 28.29-6 42.51-8.52 2.48-.72 5.33-.77 7.58-2.2 2.55-5.5 4.24-11.34 6.24-17.05a130.4 130.4 0 0 1-7.15-14.65c26.57-5.64 53.2-11.05 79.78-16.69 2.24 5.66 5.51 11 7.12 16.88-.94 5.4-3.94 10.19-5.46 15.44 14.7-2.92 29.36-6 44.05-9 2.29-5.85 4.83-11.64 6.48-17.71 1-6.5-3.89-11.77-6.14-17.5 26.27-4.92 52.23-11.42 78.58-15.81 2.13 6.2 7.28 11.94 6 18.89-1.69 5.43-4.37 10.51-6.07 15.94 13.52-2.63 27-5.63 40.49-8.29 2.26-6.36 5-12.59 6.78-19.1 1-6.5-3.88-11.77-6.13-17.5 26.26-4.92 52.23-11.42 78.58-15.81 2.13 6.2 7.28 11.94 6 18.89-1.88 5.94-4.75 11.52-6.77 17.42q4.35-.87 8.73-1.71c8.52-23.23 17.35-46.35 26-69.54 1.55-5 7.72-4.33 11.77-5.67-.69 2.64-1.47 5.26-2.37 7.83-8.38 23.16-16.82 46.29-25 69.53a13.15 13.15 0 0 1-1.92 3.8c-6.24 2.06-12.84 2.71-19.14 4.51-2.28.57-2.85 3.19-3.78 5-3.48 9.08-7.43 18-10.79 27.1-.9 1.94-1.45 4.24-3.16 5.65-3.71 1.61-7.81 2-11.7 3-20.92 4.3-41.56 9.88-62.54 13.87 3.93-12.84 8.63-25.41 12.57-38.24-12.53 2.64-25.11 5.08-37.62 7.81-3.78-.59-4.68 3-5.85 5.5-3.59 9.5-7.76 18.76-11.27 28.31-.9 1.94-1.45 4.24-3.16 5.65-3.71 1.61-7.81 2-11.7 3-20.92 4.3-41.56 9.88-62.54 13.87 3.77-13.19 8.95-25.94 12.61-39.16-15.16 2.8-30.22 6.15-45.31 9.31q-7.92 20-15.9 39.9c-1 3.35-4.71 3.71-7.63 4.46-23.57 5.17-47 10.7-70.59 16 4.75-14.65 10.09-29.1 14.85-43.74-15.57 2.93-31 6.39-46.58 9.51-4.12-.46-5.49 3.34-6.66 6.29-4.75 12.65-10.31 25-15 37.65-26.82 6.66-53.85 12.39-80.77 18.64 4.87-14.78 9.86-29.51 14.76-44.28-17.52 3.31-34.83 7.76-52.46 10.48-23.76-89.89-48.35-179.51-72.33-269.29-2.89-10-6.49-20.07-5.23-30.69l6-73.75c.44-7.48 2.14-14.83 2.22-22.32q243.08-44.41 486-89.53m18.6 8.1Q267 59.12 20.87 103.78c7.94 35.69 16.66 71.2 24.68 106.87 14.92 1.68 25.91 13.91 32.87 26.32 4.74 9.51 9.46 19.94 7.52 30.84-1.22 11.33-8.68 20.79-17.3 27.73 9.91 33.12 20.13 66.13 30.34 99.16 63.75-12 127.28-25.22 191-37.61q166.72-33.19 333.49-66.21c-33.6-92.73-67.67-185.27-101.38-278-3 .44-6 .89-8.95 1.4m-503.85 89c.29 2.32.6 4.67 1 7a86.7 86.7 0 0 0-1-7z"/><path d="M226.92 161.88c35.69-7.61 71.4-15.15 107.19-22.27a262.8 262.8 0 0 1 6.69 21c-26.87 5.24-53.63 10.95-80.4 16.65 1.91 5.4 3.74 10.83 5.6 16.25 15.76-2.7 31.3-6.48 47-9.37a417.43 417.43 0 0 1 7.35 21.83c-15.68 3.11-31.3 6.47-46.94 9.71a522.7 522.7 0 0 0 5.5 16.65c26.68-5.41 53.27-11.24 80-16.55 2.68 7.45 5.25 15 7.56 22.53-35.85 7.19-71.58 14.95-107.41 22.22a4895.13 4895.13 0 0 0-25.88-78.78c-2.18-6.59-4.64-13.11-6.26-19.87zm-121.7 25.06c32.08-6.9 64.28-13.24 96.34-20.25q4 10.73 7.35 21.69c-30.8 6.83-61.79 12.75-92.59 19.57 1.9 5.64 3.75 11.3 5.74 16.91 19.64-4.14 39.3-8.17 58.94-12.31 8.31-1.71 16.61-4 25.17-3.86 5.72-.6 11.21 3.63 12.55 9.14 4.33 12.69 9.14 25.37 11.71 38.56 1.46 6.65-5.3 11.31-11 12.39-34.28 7.32-68.64 14.26-102.93 21.55-2.57-7.06-5-14.16-7.18-21.35 30.75-6.44 61.55-12.64 92.25-19.29-1.77-5.64-3.72-11.21-5.34-16.88-24.4 4.61-48.6 10.28-73 14.93-7 .69-15.58 1.79-21.11-3.69-4.39-7.45-6-16.11-9-24.13-2.15-7.38-6.09-14.59-5.66-22.49 2.62-7.07 11.24-8.91 17.76-10.49zm16.39 110.19c15.07-2.4 29.38 8.66 34.12 22.54 5.71 14.15 3 32.1-8.61 42.55-8.2 7.87-21.56 9.55-31.53 4.15-13.49-6.4-21-21.89-20.17-36.44 0-15 10.56-31 26.19-32.8m-.76 17.9c-10.14 2.55-16.22 13.71-14.86 23.76.06 12.93 12.59 26 26.08 22.14 9.77-2.72 15.47-14 14.21-23.7-.06-12.65-12.14-25.69-25.43-22.23z"/><path d="M437.22 89.29c25.7-4.94 51.25-10.7 76.92-15.81C530 120 545 166.9 560.6 213.55c6.56-1.31 13.1-2.75 19.65-4.12 1.82 6.18 3.63 12.37 5.73 18.46-12.78 2.37-25.43 5.46-38.27 7.55-15.51-46.53-30.71-93.15-46.17-139.71-13.14 2.46-26.19 5.35-39.28 8 11.55 37.37 24.74 74.18 36.46 111.47 3.06 9.62 6.85 19 9.29 28.83-14.37 3.1-28.82 5.84-43.16 9.1-5.26-16.89-11.09-33.58-16.61-50.37-10.09-29.81-19.38-59.88-29.67-89.61-13.15 2.21-26.15 5.17-39.2 7.86 5.32 17.85 11.42 35.45 17.29 53.13 9.74 28.94 19 58.06 28.69 87-87.5 18.27-175.11 36.07-262.65 54.18-2.09-6.06-4.25-12.09-6-18.26 81.2-16.89 162.51-33.24 243.66-50.35-9.38-29.76-19.6-59.25-29.35-88.88-5.2-17.13-11.14-34-16.79-51 25.7-5.54 51.49-10.7 77.2-16.2q22.94 70.13 46.23 140.16c2-.39 4-.81 5.93-1.24-15.68-46.69-30.97-93.5-46.36-140.26z" fill="#70de01"/></svg>