<svg xmlns="http://www.w3.org/2000/svg" viewBox="0 0 408.33 128.16"><path d="M237.52 118.95c-2.92-.59-6.5-1.3-7.97-1.56a51.59 51.59 0 0 1-3.1-.64l-2.96-1.12c-3.16-1.23-4.17-1.83-4.69-2.76-.2-.37-.23-.51-.23-1.31v-.9l.45-.74c.73-1.22.9-1.64.9-2.3v-.57l-1.14-1.8c-3.82-6.07-5.63-9.16-7-11.98a62.48 62.48 0 0 0-1.35-2.66c-.2-.35-.63-1.45-1.06-2.7a94.76 94.76 0 0 0-1.48-4 17.6 17.6 0 0 1-1.25-4.27c-.27-1.32-.7-3.18-.94-4.15a49.19 49.19 0 0 1-.81-4.15l-.37-2.39.03-4.31.04-4.31.36-2.3c.26-1.63.52-2.83.88-4.14.27-1.01.7-2.72.94-3.78.54-2.34.87-3.31 1.44-4.32.25-.43.75-1.6 1.14-2.65.64-1.71.83-2.11 2.16-4.45a56.68 56.68 0 0 1 6.13-9.07c2.74-3.3 3.62-4.26 4.82-5.28 1.5-1.27 1.3-1.12 3.93-2.93 1.9-1.31 2.86-1.9 4.8-2.95l2.41-1.3 3.76-1 3.76-.99 2.53-.04 2.53-.05 4.13.78c4.54.86 5.6 1.14 7.18 1.92.55.27 1.93.8 3.07 1.2 1.77.6 2.51.9 5.16 2.19 1.7.82 3.34 1.63 3.65 1.8.32.18.87.64 1.33 1.1.7.72.89 1 2.01 2.96.69 1.18 1.37 2.36 1.53 2.61.17.25.64 1.17 1.06 2.03a42.2 42.2 0 0 0 1.36 2.56c.33.54.95 1.78 1.37 2.74.43.97.97 2.07 1.22 2.45.34.54.8 1.6 1.92 4.5l1.48 3.8.73 3.16c.55 2.38.82 3.38 1.12 4.1.21.51.55 1.48.75 2.15.33 1.08.4 1.48.62 3.65.24 2.36.25 2.56.24 7.51 0 2.95-.07 6.86-.16 9.32l-.16 4.23-.32 1.21a11 11 0 0 1-1.32 3.06 137.1 137.1 0 0 1-2.8 5.09c-.16.25-.63 1.22-1.03 2.16-.4.94-.96 2.05-1.23 2.48-.27.43-1.2 2.27-2.07 4.1-1.33 2.8-1.62 3.48-1.84 4.35l-.45 1.67c-.13.46-.18.89-.18 1.64 0 .98.01 1.04.3 1.62.34.64.65.94 1.37 1.3l.45.22 7.92.15c4.89.1 11.7.15 17.78.15 10.94 0 10.06-.04 11.33.58 1.31.65 1.17 2.22-.28 3.21a35.8 35.8 0 0 1-5.01 2.06c-.73.23-1.01.27-1.82.27-.84 0-1.03-.03-1.66-.27-.7-.27-1.8-.8-2.52-1.21-.7-.4-3.93-1.24-5.22-1.36-.93-.09-3.16-.07-9.23.1l-7.02.18c-1.27.03-2.47.01-3.01-.05-.5-.05-2.06-.12-3.47-.15a17.3 17.3 0 0 0-3.87.14c-3.27.5-4.06.67-6.34 1.33-1.6.46-3.25.86-5.17 1.25-2.85.58-3.43.72-7.37 1.85-1.38.4-2.57.68-3.2.76-1 .13-3.98.31-5.1.3-.38 0-2.45-.38-5.9-1.08zm9.91-7.9c2.96-.2 5.47-.39 5.57-.41.1-.03 1.45-.2 3.01-.37 3.3-.37 5.47-.8 7-1.42 1.38-.54 3.31-2.02 5.25-3.99a16.15 16.15 0 0 0 2.57-3.18c2.39-3.57 3.12-4.83 3.85-6.57a64.7 64.7 0 0 1 1.48-3.21c.5-1.02.95-2.09 1.23-2.9a98.6 98.6 0 0 1 2.01-5.5c.42-1 1.07-3.38 1.22-4.46.05-.34.3-4.98.5-9.35.06-1.22.09-3.8.07-5.9-.04-3.57-.06-3.82-.32-5.67-.36-2.5-.95-4.58-2.45-8.56a28.04 28.04 0 0 0-1.66-3.9 19.28 19.28 0 0 1-1.7-3.33c-.27-.72-.65-1.39-1.84-3.26-2.1-3.3-3.78-5.4-6.36-8a24.38 24.38 0 0 0-5.4-4.37c-2.18-1.4-3.51-2-8.06-3.56-2.7-.94-3.38-1.02-8.5-1.02-3.17 0-4.02.03-5.22.17-2.23.27-4.7 1.03-6.84 2.1-1 .5-6.26 4.59-7.94 6.17-.7.66-2.41 2.46-3.8 4-2.5 2.79-2.54 2.84-3.96 5.04a85.7 85.7 0 0 0-1.52 2.38c-.05.1-.64 1.61-1.32 3.38-1.15 3.03-1.25 3.33-1.62 5.09-.4 1.91-.42 2.08-.73 7.04-.35 5.69-.54 16.8-.3 18.01l.3 1.75c.32 1.8.8 3.26 1.6 4.86.51 1.02.85 1.87 1.38 3.5.6 1.84.8 2.34 1.37 3.35.36.65 1.02 2.09 1.47 3.2.85 2.1 1.86 4 3.43 6.45a33.8 33.8 0 0 0 5.11 5.86c1.31 1.14 1.52 1.28 3.87 2.66 1.56.9 2.83 1.57 3.37 1.78a94.2 94.2 0 0 0 8.4 2.48c.05 0 2.52-.15 5.48-.35zm-207.87 8.3a22.6 22.6 0 0 1-5.17-1.16 245.6 245.6 0 0 1-5.94-1.88 34.9 34.9 0 0 0-5.58-1.53c-3.8-.77-5.16-1.14-6.06-1.65a14.8 14.8 0 0 1-1.48-1c-.7-.57-.74-.64-1.11-1.46-.21-.48-.54-1.37-.73-1.98a8.91 8.91 0 0 0-.65-1.6 27.96 27.96 0 0 0-2.34-2.53l-2.04-2.02-.29-.83-.29-.83v-1.8c0-1.64.02-1.85.18-2.17.3-.6.72-.99 1.33-1.26.52-.24.69-.27 1.45-.27.81 0 .92.03 1.81.39.52.21 1.1.49 1.28.6.19.13.93 1.01 1.75 2.07a40.9 40.9 0 0 0 5.04 5.5c1.33 1.23 1.5 1.36 4.03 2.93l2.64 1.65 3 .94 3.4 1.08c.22.08 1.13.27 2.02.43 1.63.3 1.64.3 5.15.32 4.15.03 5.26-.07 8.41-.79 1.07-.24 2.99-.67 4.28-.94a63.22 63.22 0 0 0 8.64-2.34 31.9 31.9 0 0 0 4.2-1.56l.78-.43 1.19-1.57c1.28-1.7 1.3-1.74 2.87-5.35a20.8 20.8 0 0 0 1.85-5.88l.5-2.51-.01-2.96c0-2.5-.03-3.12-.17-3.96-.32-1.85-.4-2.07-1.17-3.2-.92-1.32-1.92-2.2-4.9-4.26-3.56-2.46-5.7-3.64-8.56-4.7-1.14-.43-2.59-1-3.23-1.3-.99-.45-1.57-.63-4-1.25-1.57-.4-3.92-1.07-5.22-1.49a30.01 30.01 0 0 0-3.24-.9c-3.67-.58-6.5-1.34-8.25-2.2-.6-.29-1.49-.65-1.98-.81-1.24-.4-2.68-.99-3.57-1.47-.42-.23-1.56-.74-2.55-1.14-1.84-.75-2.2-.93-5.5-2.82a20.3 20.3 0 0 1-5.83-4.63 13.5 13.5 0 0 1-1.72-2.27 35.23 35.23 0 0 1-2.4-6.07L11 43.05l-.04-3.78c-.04-4.55-.02-4.72.79-6.08.92-1.56 4.5-7.31 5.44-8.73 1-1.52 2.27-3.32 2.65-3.72.13-.14.58-.46 1-.71.63-.38 1.15-.58 2.93-1.12 1.18-.37 2.6-.85 3.15-1.06 1.54-.62 3.61-1.07 8.58-1.86 5-.8 5.9-.88 8.76-.89 1.84 0 2.09.02 4.32.37 5.4.83 8.41 1.51 10.29 2.33 1.37.6 2.95 1.23 4.72 1.9 1.2.44 5.16 2.38 5.98 2.92.13.08.54.58.93 1.1.38.53.82 1.1.98 1.28.15.17 1.08 1.7 2.06 3.38 1.9 3.27 2.14 3.8 2.25 5.03.07.7.06.7-.31 1.48-.38.77-.4.78-1.03 1.12a2.3 2.3 0 0 1-2.26.1c-.51-.22-.73-.4-1.91-1.6a52.56 52.56 0 0 1-2.55-2.85c-1.65-2-3.27-3.43-5.96-5.24l-1.95-1.32-3.22-1.34c-2.74-1.14-3.36-1.37-4.12-1.5l-1.9-.33c-2.8-.5-4.33-.62-7.65-.62-3.11 0-3.2 0-5.54.32-3.29.44-3.4.46-4.62.81-1.06.31-1.79.63-5.04 2.2a13.3 13.3 0 0 0-3.51 2.28l-1.9 1.5-.9 1.28c-1.66 2.34-1.97 2.94-2.41 4.57-.46 1.72-.6 2.79-.6 4.66 0 2.44.28 4.35.95 6.51.27.89 1.81 3.48 2.6 4.38.62.71 2.05 1.77 3.15 2.33l2.42 1.3a41.3 41.3 0 0 0 3.07 1.52l2.57 1.1c.87.38 2.27.87 4.19 1.46 1.58.48 3.32 1.07 3.87 1.32a23 23 0 0 0 3.69 1.11c1.86.47 3.37.91 4.87 1.44 1.2.42 2.8.9 3.56 1.08a55.64 55.64 0 0 1 8.71 2.8c2.52.91 2.64.98 4.73 2.4a25 25 0 0 1 4.03 3.3 24.57 24.57 0 0 1 3.3 3.55l1.22 1.6 1.38 2.98c1.68 3.66 1.76 3.94 1.85 7.05.06 1.64.03 2.34-.12 4.14-.3 3.3-.43 4-1.26 6.44-.41 1.2-.86 2.72-1.04 3.55a44.4 44.4 0 0 1-1.14 4.25l-.45 1.46.1 2.12c.06 1.17.08 2.21.06 2.32-.03.12-.33.47-.66.79l-.61.58-2.7.7a57.08 57.08 0 0 0-6.53 2.09c-.96.33-2.83 1-4.14 1.5-1.8.67-2.8.99-4.1 1.3l-4.67 1.11-2.97.72-2.78.22c-1.53.13-2.98.23-3.24.22-.25 0-1.5-.15-2.76-.31zm73.08-.03c-.47-.3-.82-.67-1.77-1.83l-1.18-1.45-1.11-.62a7.03 7.03 0 0 0-2.68-.97c-.86-.19-2.23-.54-3.05-.77-1.32-.37-1.48-.44-1.56-.65-.07-.17-.05-.32.07-.58.18-.4.1-.35 3.5-1.81 2.93-1.26 3.33-1.47 3.87-2.04.74-.78.9-1.14 1.12-2.5.18-1.14.2-1.9.36-11.12a4876 4876 0 0 0 .63-48.1c.12-11.68.14-11.16-.71-13.85-.68-2.14-.68-2.14.44-8.64 1-5.79 1.1-6.2 1.74-6.72.74-.6 1.23-.74 3.1-.9 4.26-.34 11.87-.58 21.94-.67 7.93-.07 8.72-.07 10.98.1 5.23.36 7.63.77 9.9 1.69.59.24 1.99.74 3.1 1.12 2.24.76 2.58.93 5.15 2.53a28.7 28.7 0 0 1 5.67 4.62 25.88 25.88 0 0 1 2.9 3.57 29.23 29.23 0 0 1 2.6 4.16c1.7 3.2 1.77 3.43 2.09 6.46.2 1.97.18 7.3-.05 9.76-.2 2.2-.25 2.52-.67 4.28-.3 1.2-.36 1.35-1.45 3.46a24.65 24.65 0 0 1-1.94 3.29 32.95 32.95 0 0 1-4.81 5.02c-3.58 2.95-10.46 7.12-12.58 7.62-1.92.45-3.05.53-11.3.77-21.4.61-25.05.74-25.48.9a3.5 3.5 0 0 0-1.75 1.6c-.45.71-.51.9-.68 1.76a64.44 64.44 0 0 0-.83 9.83c.01.87.1 3.44.21 5.71.28 5.97.33 13.5.13 16.83l-.16 2.52-.57 2c-.73 2.57-1 3-2.15 3.6-.47.24-.68.29-1.49.34l-.94.05-.59-.37zm27.72-50.9c9.99-.34 10.46-.37 13.63-1.05a69.53 69.53 0 0 0 7.61-2.3c.57-.22 1.73-.88 3.51-2 2.47-1.53 2.73-1.71 3.63-2.6a15.58 15.58 0 0 0 3.01-4.03c1.38-2.52 1.76-3.43 2.17-5.11.51-2.12.73-4.03.73-6.47 0-2.3-.13-3.1-.75-4.57-.4-.95-.6-1.3-2.2-3.81-1-1.54-4.24-5.53-5-6.13-.26-.2-.97-.84-1.6-1.4-.9-.84-1.55-1.33-3.27-2.46l-2.15-1.41-1.96-.76-1.96-.76-2.05-.18c-1.34-.11-3.92-.22-7.45-.31l-7.38-.19c-5.25-.13-15.97-.21-16.44-.13-.75.14-1.61.64-2.2 1.29-.58.64-.59.64-1.87 3.84-.9 2.27-.97 2.46-1.27 4.05a70.76 70.76 0 0 0-.81 5.2 56.79 56.79 0 0 0-.68 9.91c0 4.6.1 6.25.72 10.9l.59 4.5c.16 1.29.45 2.34.93 3.38.28.6.42.78.83 1.08 1.26.94 2.21 1.14 7.33 1.52 2.22.16 4.33.3 4.68.31.34 0 4.7-.13 9.67-.3zm204.86 50.01a12.36 12.36 0 0 1-2.23-1.48l-.67-.61v-.56c0-.48.07-.72.48-1.68.27-.62.56-1.4.64-1.75.12-.54.2-3.09.55-16.65.22-8.82.63-24.19.91-34.16.36-12.96.52-19.96.55-24.51l.04-6.38-.25-.64c-.63-1.62-1.3-2.45-3.28-4.03-.99-.8-1.8-1.19-4.28-2.09-2.24-.8-2.64-.91-4.63-1.28-2.4-.44-3.63-.48-14.51-.49h-8.98l-.47-.23c-1.1-.55-1.3-.88-2.18-3.46-.33-.97-.8-2.06-1.57-3.57-1.42-2.84-1.68-3.75-1.26-4.43.27-.44.55-.64 1.47-1.03 1.29-.54 2.86-.78 5.2-.78h1.88l.51.27c.66.34.81.56.84 1.22.03.52.02.56-.52 1.35a7.16 7.16 0 0 1-1.24 1.4c-.4.33-.82.8-1 1.1-.3.48-.33.57-.3 1.06.04.46.1.58.36.85.17.18.5.43.76.57l.45.24 32.85.05c18.06.03 33.6.08 34.51.12 1.81.07 2.02.12 2.86.67.4.25.54.42.8.92.26.54.3.7.3 1.28 0 .64-.01.69-.34 1.08-.18.22-.44.49-.57.59-.74.58-4.2.8-13.76.9-8.58.1-9.88.2-12.34.92-2.39.7-4.09 1.41-4.47 1.88-.06.07-.27.46-.46.86-.29.6-.36.88-.45 1.7-.08.74-.15 11.35-.28 41.8-.16 40.58-.16 40.82.01 41.85.15.82.3 1.3.72 2.29.52 1.21.53 1.27.53 2.05 0 1.13-.12 1.32-1.53 2.36-1.47 1.09-1.75 1.2-3.06 1.27l-1.03.04-1.56-.88zm53.04-.33l-1.58-.36a15.79 15.79 0 0 1-3.43-1.1c-.33-.21-.35-.24-.35-.71 0-.6.21-.84 1.02-1.1.97-.32 1.66-.39 4.44-.43 2.59-.04 2.76-.03 3.47.16.56.15.86.29 1.2.57.42.33.47.41.52.8.07.55-.11.82-.88 1.32-.7.46-1.63.7-3.6.94-.15.02-.52-.03-.81-.1zm-35.54-1.36l-.6-.33.02-.4c.02-.38.06-.44.39-.62.31-.18.48-.2 1.4-.2.59 0 1.17.03 1.31.09.43.16.66.44.66.8 0 .28-.04.34-.4.53-.36.19-1.53.46-1.98.46-.1 0-.46-.15-.8-.33zm-200.17-1.76l-3.38-.2c-2.17-.15-2.22-.15-3.01-.47-1.07-.43-1.22-.57-1.22-1.12v-.43l.79-.37c.59-.28.97-.4 1.5-.45 1.62-.19 5.63-.3 12.97-.33 6.84-.04 7.83-.03 8.51.1 1.03.19 3.7.2 4.4 0 .35-.09.98-.13 2.2-.13 1.5 0 1.83.03 2.62.22.6.14 1.46.25 2.56.32 1.99.13 2.16.2 2.16.78 0 .77-.45.93-2.67.93a9.6 9.6 0 0 0-1.87.18c-.48.1-1.43.22-2.11.28a9.02 9.02 0 0 1-2.42-.04c-2-.26-3.5-.2-6.38.21-2.18.32-2.83.38-5.02.45-3.43.11-8.21.15-9.63.07zm-19.95-.72c-.6-.5-.8-.86-.8-1.44 0-.38.02-.4.7-.87.65-.46.76-.5 1.6-.65 1.76-.3 2.18-.3 3.03-.04.65.2.82.29 1.13.62.34.37.36.42.32.84-.1 1.17-.24 1.33-1.38 1.67-.65.2-1 .24-2.4.28l-1.65.05-.55-.46zm54.01.28c-.17-.04-.7-.1-1.18-.12-1.1-.06-1.62-.27-1.88-.77a1.3 1.3 0 0 1-.15-.68c.04-.41.54-1.1.92-1.25.4-.17 13.5-.31 14-.15.49.16.77.52.92 1.15l.12.55-.37.41c-.29.33-.51.47-1.08.69l-.72.27h-5.13a96.95 96.95 0 0 1-5.45-.1zm-190.8-.82c-1.18-.96-1.32-2.25-.35-3.36.43-.48.69-.58 1.56-.58.65 0 .85.04 1.22.23.6.3.81.7.81 1.57 0 1.19-.57 1.88-1.93 2.34l-.75.25-.55-.45zM397.95 13.6c-.57-.17-1.88-.67-2.92-1.1-2.1-.9-3.08-1.16-6.48-1.77-1-.17-1.85-.33-1.9-.35-.07-.02-.09-.14-.05-.32.05-.27.1-.3 1-.59.8-.26 1.2-.33 2.57-.45.89-.07 2.69-.24 4-.36a47.1 47.1 0 0 1 5.41-.22c3.01 0 3.05 0 3.52.21 1.1.5 1.78 1.33 1.78 2.17 0 .56-.42 1.37-1.04 1.98l-.45.46-1.35.28c-.74.16-1.73.31-2.2.33-.78.04-.94.02-1.89-.27zm-294.52-1c-1.66-.59-4.68-2-4.81-2.26-.06-.1-.1-.32-.1-.5 0-.74 1.27-1.12 4.68-1.4 1.63-.14 2.86-.18 6.35-.17 5.42 0 5.87.07 6.66 1 .26.31.26.56 0 1.17-.11.28-.25.4-.75.64-1 .5-1.6.67-3.75 1.05l-3.04.54c-.62.11-1.56.2-2.61.22l-1.64.05-1-.35zm91.67-1.32a4 4 0 0 0-1.07-.06c-.07.04-.3.03-.53-.02a2.16 2.16 0 0 0-.96.02c-1.05.2-3.78-.24-5-.82-.34-.17-.42-.25-.44-.48-.02-.23.03-.32.28-.51a7.7 7.7 0 0 1 2.94-.83c.9-.1 1.59-.24 3.02-.6.2-.06 2.68-.14 6-.19 5.56-.09 5.67-.08 6.78.1 1.17.2 1.65.38 2.35.9.35.25.37.3.43.86.08.74-.02.93-.7 1.26-.43.21-.65.25-1.91.33-.8.04-3.42.1-5.84.12-3.49.04-4.61.02-5.35-.08zM8.54 11.14a3.83 3.83 0 0 1-1.72-.84c-.25-.23-.29-.34-.29-.7 0-.4.02-.45.4-.71a6 6 0 0 1 1.2-.54c.76-.26.84-.27 2.55-.27 1.43 0 1.94.04 2.66.18 1.24.26 1.98.52 2.33.83.44.39.42.69-.08 1.1-.49.4-1.02.53-3.4.8-2.8.34-2.92.35-3.65.15zm269.57-.23a9.42 9.42 0 0 1-1.76-.57c-.18-.13-.23-.25-.25-.67l-.03-.5.54-.28c.74-.37 1.4-.45 3.8-.45 1.72 0 2.14.03 2.72.18 1.2.3 1.68.64 1.68 1.18 0 .52-.13.75-.56 1-.58.35-1 .42-2.9.46l-1.71.05-1.53-.4zm-105.8.06c-2-.39-2.37-.57-2.41-1.15-.02-.31.01-.4.25-.6.15-.12.5-.31.77-.41.47-.18.68-.19 3.6-.19h3.1l1.77.31 2.37.42c.32.05.63.15.69.2.13.14.25.7.14.7-.04 0-1.25.17-2.68.39-2.32.35-2.83.4-4.67.44-1.77.04-2.2.03-2.93-.11zm44.31-.13c-.49-.25-.57-.33-.66-.65-.18-.63-.1-.85.44-1.23l.5-.34h.95c.87 0 1 .02 1.45.25l.49.25.02.48c.02.33-.01.55-.12.7-.22.34-1.14.72-1.88.78-.58.04-.68.02-1.19-.24zm137.8-.11a50.4 50.4 0 0 0-1.93-.13c-1.6-.1-1.67-.12-1.91-.34-.36-.34-.4-.53-.14-.8.11-.12.31-.28.45-.35.3-.16 3.62-.3 6.9-.3 2 0 2.4.01 2.65.14.53.27.6.38.6.93v.51l-.56.15c-.43.1-1.18.15-3.17.17-1.44.02-2.74.03-2.88.02zm-203.69-.4c-.12-.16-.2-.4-.2-.6 0-.32.04-.38.35-.55.46-.26.75-.25 1.08.03.25.21.28.3.28.71v.48l-.55.06c-.3.03-.6.08-.65.1-.06.03-.2-.08-.31-.22zm216.67.04c-.43-.23-.45-.26-.54-.67-.04-.18.01-.27.3-.47.31-.23.42-.25 1.1-.25.68 0 .77.03 1.03.25.2.17.3.36.34.61l.06.37-.75.15-.92.2c-.1.02-.38-.07-.62-.19zm-110.55-.11c-.06-.04-.14-.23-.17-.43-.05-.34-.03-.38.26-.6.39-.3.61-.31.96-.05.23.17.27.25.27.62 0 .41 0 .42-.34.47-.45.08-.85.07-.98-.01zm-19.82-.22c-.23-.15-.28-.23-.28-.52 0-.3.03-.35.28-.44a1.4 1.4 0 0 1 1.03 0c.2.1.23.16.2.47-.02.35-.04.37-.48.52-.45.15-.47.15-.75-.03zm-97.78-.22c-.06-.38.05-.51.6-.71.25-.09.35-.07.71.1.34.18.43.27.43.45 0 .28-.23.38-1.07.46l-.61.05-.06-.35z"/></svg>